# xmcd
#
# Track frame offsets:
#	150
#	19204
#	35739
#	52534
#	72606
#	86823
#	102521
#	116815
#	132141
#	149718
#	161207
#	177525
#	191130
#	206257
#	223464
#	234791
#	268173
#
# Disc length: 3590 seconds
#
# Revision: 1
# Processed by: cddbd v1.5.2PL0 Copyright (c) Steve Scherf et al.
# Submitted via: audiograbber 1.83.01
#
DISCID=100e0411
DTITLE=Chartbusters - Country 500 Vol.1 d12
DYEAR=1900
DGENRE=karaoke
TTITLE0=The Charlie daniels Band - Long haired country boy
TTITLE1=Conway Twitty - I'd Love to Lay You Down
TTITLE2=Barbara Mandrell - I Was Country When Country Wasn't Cool
TTITLE3=Alabama - My home's in Alabama
TTITLE4=George Jones - He stopped loving her today
TTITLE5=John Conlee - Friday Night blues
TTITLE6=Dottie West - A lesson on leaving
TTITLE7=Johnny Lee - Looking for love
TTITLE8=Kenny Rogers - Lady
TTITLE9=Willie Nelson - On the road again
TTITLE10=Rosanne Cash - My baby thinks he's a train
TTITLE11=Conway Twitty - Tight fitting jeans
TTITLE12=Eddie Rabbit - I love a rainy night
TTITLE13=Charlie McClain - Surround me with love
TTITLE14=Mell McDaniel - Louisiana Saturday Night
TTITLE15=Merle Haggard - I think I'll just stay here and drink
TTITLE16=Data - Track 
EXTD=
EXTT0=
EXTT1=
EXTT2=
EXTT3=
EXTT4=
EXTT5=
EXTT6=
EXTT7=
EXTT8=
EXTT9=
EXTT10=
EXTT11=
EXTT12=
EXTT13=
EXTT14=
EXTT15=
EXTT16=
PLAYORDER=
